<mxfile host="app.diagrams.net" modified="2020-09-14T14:07:29.056Z" agent="5.0 (Windows NT 10.0; Win64; x64) AppleWebKit/537.36 (KHTML, like Gecko) Chrome/85.0.4183.102 Safari/537.36" etag="KSbcQGMli7UmbrsjeQnK" version="13.6.10" type="github">
  <diagram id="2eBaNiK83SsfWGN7OqTg" name="Page-1">
    <mxGraphModel dx="1117" dy="670" grid="1" gridSize="10" guides="1" tooltips="1" connect="1" arrows="1" fold="1" page="1" pageScale="1" pageWidth="827" pageHeight="1169" math="0" shadow="0">
      <root>
        <mxCell id="0" />
        <mxCell id="1" parent="0" />
        <mxCell id="iDiovrbEPyYLWm7U3jqZ-9" style="edgeStyle=orthogonalEdgeStyle;rounded=0;orthogonalLoop=1;jettySize=auto;html=1;fontFamily=Helvetica;fontSize=17;" edge="1" parent="1" source="iDiovrbEPyYLWm7U3jqZ-1" target="iDiovrbEPyYLWm7U3jqZ-5">
          <mxGeometry relative="1" as="geometry" />
        </mxCell>
        <mxCell id="iDiovrbEPyYLWm7U3jqZ-1" value="당근마켓" style="ellipse;whiteSpace=wrap;html=1;aspect=fixed;fontFamily=Helvetica;fontSize=17;" vertex="1" parent="1">
          <mxGeometry x="315" y="370" width="150" height="150" as="geometry" />
        </mxCell>
        <mxCell id="iDiovrbEPyYLWm7U3jqZ-16" style="edgeStyle=orthogonalEdgeStyle;rounded=0;orthogonalLoop=1;jettySize=auto;html=1;fontFamily=Helvetica;fontSize=17;" edge="1" parent="1" source="iDiovrbEPyYLWm7U3jqZ-3" target="iDiovrbEPyYLWm7U3jqZ-1">
          <mxGeometry relative="1" as="geometry" />
        </mxCell>
        <mxCell id="iDiovrbEPyYLWm7U3jqZ-3" value="판매자" style="rounded=0;whiteSpace=wrap;html=1;fontFamily=Helvetica;fontSize=17;" vertex="1" parent="1">
          <mxGeometry x="330" y="140" width="120" height="50" as="geometry" />
        </mxCell>
        <mxCell id="iDiovrbEPyYLWm7U3jqZ-18" style="edgeStyle=orthogonalEdgeStyle;rounded=0;orthogonalLoop=1;jettySize=auto;html=1;fontFamily=Helvetica;fontSize=17;" edge="1" parent="1" source="iDiovrbEPyYLWm7U3jqZ-4" target="iDiovrbEPyYLWm7U3jqZ-1">
          <mxGeometry relative="1" as="geometry" />
        </mxCell>
        <mxCell id="iDiovrbEPyYLWm7U3jqZ-4" value="동네 업체" style="rounded=0;whiteSpace=wrap;html=1;fontFamily=Helvetica;fontSize=17;" vertex="1" parent="1">
          <mxGeometry x="580" y="415" width="120" height="60" as="geometry" />
        </mxCell>
        <mxCell id="iDiovrbEPyYLWm7U3jqZ-5" value="구매자" style="rounded=0;whiteSpace=wrap;html=1;fontFamily=Helvetica;fontSize=17;" vertex="1" parent="1">
          <mxGeometry x="80" y="415" width="120" height="60" as="geometry" />
        </mxCell>
        <mxCell id="iDiovrbEPyYLWm7U3jqZ-8" value="중고물품 등록" style="text;html=1;strokeColor=none;fillColor=none;align=center;verticalAlign=middle;whiteSpace=wrap;rounded=0;fontFamily=Helvetica;fontSize=17;" vertex="1" parent="1">
          <mxGeometry x="400" y="290" width="130" height="20" as="geometry" />
        </mxCell>
        <mxCell id="iDiovrbEPyYLWm7U3jqZ-10" value="중고 물품 목록" style="text;html=1;strokeColor=none;fillColor=none;align=center;verticalAlign=middle;whiteSpace=wrap;rounded=0;fontFamily=Helvetica;fontSize=17;" vertex="1" parent="1">
          <mxGeometry x="190" y="455" width="140" height="20" as="geometry" />
        </mxCell>
        <mxCell id="iDiovrbEPyYLWm7U3jqZ-12" value="채팅" style="rounded=0;whiteSpace=wrap;html=1;fontFamily=Helvetica;fontSize=17;" vertex="1" parent="1">
          <mxGeometry x="80" y="250" width="120" height="60" as="geometry" />
        </mxCell>
        <mxCell id="iDiovrbEPyYLWm7U3jqZ-14" value="" style="endArrow=classic;startArrow=classic;html=1;fontFamily=Helvetica;fontSize=17;entryX=0.5;entryY=1;entryDx=0;entryDy=0;" edge="1" parent="1" source="iDiovrbEPyYLWm7U3jqZ-5" target="iDiovrbEPyYLWm7U3jqZ-12">
          <mxGeometry width="50" height="50" relative="1" as="geometry">
            <mxPoint x="340" y="390" as="sourcePoint" />
            <mxPoint x="390" y="340" as="targetPoint" />
          </mxGeometry>
        </mxCell>
        <mxCell id="iDiovrbEPyYLWm7U3jqZ-15" value="" style="endArrow=classic;startArrow=classic;html=1;fontFamily=Helvetica;fontSize=17;exitX=0.5;exitY=0;exitDx=0;exitDy=0;" edge="1" parent="1" source="iDiovrbEPyYLWm7U3jqZ-12" target="iDiovrbEPyYLWm7U3jqZ-3">
          <mxGeometry width="50" height="50" relative="1" as="geometry">
            <mxPoint x="190.0011111111113" y="250" as="sourcePoint" />
            <mxPoint x="228.89" y="145.0000000000001" as="targetPoint" />
            <Array as="points">
              <mxPoint x="160" y="164" />
            </Array>
          </mxGeometry>
        </mxCell>
        <mxCell id="iDiovrbEPyYLWm7U3jqZ-19" value="업체광고" style="text;html=1;strokeColor=none;fillColor=none;align=center;verticalAlign=middle;whiteSpace=wrap;rounded=0;fontFamily=Helvetica;fontSize=17;" vertex="1" parent="1">
          <mxGeometry x="490" y="455" width="70" height="20" as="geometry" />
        </mxCell>
      </root>
    </mxGraphModel>
  </diagram>
</mxfile>
